<svg width="2316" height="2264" viewBox="0 0 2316 2264" fill="none" xmlns="http://www.w3.org/2000/svg">
<rect width="2316" height="2264" fill="#EFEFEF"/>
<path d="M324.667 2132C324.667 2132 158 2132 158 1965.33C158 1798.67 324.667 1298.67 1158 1298.67C1991.33 1298.67 2158 1798.67 2158 1965.33C2158 2132 1991.33 2132 1991.33 2132H324.667ZM1158 1132C1290.61 1132 1417.79 1079.32 1511.55 985.553C1605.32 891.785 1658 764.608 1658 632C1658 499.392 1605.32 372.215 1511.55 278.447C1417.79 184.678 1290.61 132 1158 132C1025.39 132 898.215 184.678 804.447 278.447C710.678 372.215 658 499.392 658 632C658 764.608 710.678 891.785 804.447 985.553C898.215 1079.32 1025.39 1132 1158 1132Z" fill="white"/>
</svg>
