<svg xmlns="http://www.w3.org/2000/svg" viewBox="0 0 1287.55 283.47"><title>Ativo 1logo fapesp em preto</title><g id="Camada_2" data-name="Camada 2"><g id="Camada_1-2" data-name="Camada 1"><path d="M207.8,137.19c9.59-32.27,19.18-64.55,29.26-96.83C214.36,16.65,189.65,0,159.9,0,129.63,0,95.33,16.65,58,40.36Q43.63,88.78,29.26,137.19C19.18,169.47,9.59,201.76,0,234.53c36.82-23.19,71.12-38.83,100.89-38.83,30.25,0,55,15.64,77.67,38.83,9.57-32.77,19.65-65.06,29.24-97.34"/><path d="M823.13,175.53a76.55,76.55,0,0,0,11.6-24.22c7.06-22.69,4.54-39.84-7.05-50.94-1-1.51-2.54-2.51-4.55-4-11.1-8.07-30.76-12.61-57.5-12.61H694.52L637,278.92v.5H704.1l19.17-65.06h13.62c6.05,0,12.1-.5,18.16-1,17.14-2.52,32.27-7.56,45.39-16.13a77.85,77.85,0,0,0,22.69-21.69M772.7,147.28a25.09,25.09,0,0,1-12.1,16.14,19.19,19.19,0,0,1-5.55,2.52c-5,2-11.1,3-18.67,3L749,125.6h6.06c7.05.5,12.6,2,15.63,5.55,3.53,3.52,4,9.07,2,16.13"/><polygon points="486.22 179.05 491.77 159.38 446.38 159.38 454.44 131.15 506.38 131.15 520.52 83.73 402.92 83.73 415.11 40.86 238.07 40.86 401.14 84.88 357.6 234.54 177.04 234.54 344.49 279.42 411.07 279.42 432.76 205.78 478.15 205.78 486.22 179.05"/><path d="M1276.56,100.37c-11.1-11.09-32.28-16.64-62.53-16.64h-71.12l-39.85,136.18-17.65,59.51h67.07l19.18-65.06h13.62c6,0,12.1-.5,18.15-1,17.16-2.52,32.28-7.56,45.39-16.13,17.65-11.11,29.26-26.24,34.81-45.91,7-22.69,4.53-39.84-7.07-50.94m-55.48,46.91c-2.53,7.57-6,12.61-12.1,16.14a19.07,19.07,0,0,1-5.55,2.52c-5,2-11.1,3-18.67,3l12.62-43.37h6c7.06.5,12.61,2,15.63,5.55,3.54,3.52,4,9.07,2,16.13"/><path d="M1091,190.16c-3.54-8.58-13.62-19.18-29.75-32.29,0-.5-.52-.5-1.53-1.51-9.07-7.06-13.1-13.11-11.59-18.16a14.6,14.6,0,0,1,7.05-8.57,26.74,26.74,0,0,1,13.12-3.53c6.06,0,11.6,1.52,18.16,4a114.92,114.92,0,0,1,16.64,9.57,5,5,0,0,0,2.53,2l14.61-50.44a121.11,121.11,0,0,0-17.14-6.56c-3-.5-5.55-1.5-8.07-2a111.81,111.81,0,0,0-25.72-3c-21.69,0-40.86,5.55-57.51,16.15C994.63,106.42,984,120.05,979,136.69c-2.52,9.58-2.52,18.66.51,26.73,3.53,8.58,13.12,20.18,28.76,35.3a.49.49,0,0,0,.49.51c8.58,9.08,12.62,15.64,11.09,20.17a15.65,15.65,0,0,1-8.07,10.1,25.85,25.85,0,0,1-14.11,4c-6,0-12.61-2-19.67-5a124.51,124.51,0,0,1-15.64-9.09,31.76,31.76,0,0,1-6.56-5l-16.13,54a114.45,114.45,0,0,0,22.69,10.59c.5.5,1.52.5,2,1a117.71,117.71,0,0,0,26.73,3.54c24.72,0,45.91-6.07,64.06-17.66s30.27-26.74,35.82-45.9c3.53-11.6,3-21.19,0-29.75"/><polygon points="890.22 228.99 898.28 201.76 944.68 201.76 958.31 156.36 911.39 156.36 918.96 131.15 970.41 131.15 984.52 83.73 865.5 83.73 823.13 227.48 808.5 279.42 927.03 279.42 942.16 228.99 890.22 228.99"/><path d="M637,83.73H561.87L486.22,218.4l-34.3,61H517l13.62-28.74h39.85l-3.53,28.74H632l5-192.16ZM575.5,211.33H548.76L565.91,175l17.14-36.31Z"/></g></g></svg>