<svg xmlns:xlink="http://www.w3.org/1999/xlink" width="289.5" xmlns="http://www.w3.org/2000/svg" height="276.5" id="screenshot-47312f52-29b6-80a3-8003-e536fece2c39" viewBox="-1.5 -0 289.5 276.5" style="-webkit-print-color-adjust: exact;" fill="none" version="1.1"><g id="shape-47312f52-29b6-80a3-8003-e536fece2c39" rx="0" ry="0"><g id="shape-47312f52-29b6-80a3-8003-e537469d2097"><g fill="none"><g class="fills" id="fills-47312f52-29b6-80a3-8003-e537469d2097"><rect rx="0" ry="0" x="0" y="-5.684341886080802e-14" transform="matrix(1.000000, 0.000000, 0.000000, 1.000000, 0.000000, 0.000000)" width="288.0000000000009" height="275.6532663316572" class="frame-background"/></g><g class="frame-children"><g id="shape-47312f52-29b6-80a3-8003-e5374144bfe7"><g fill="none"><g class="fills" id="fills-47312f52-29b6-80a3-8003-e5374144bfe7"><rect rx="0" ry="0" x="-4.547473508864641e-13" y="-1.1368683772161603e-13" transform="matrix(1.000000, 0.000000, 0.000000, 1.000000, 0.000000, 0.000000)" width="288.00000000000045" height="144.9999999999999" class="frame-background"/></g><g class="frame-children"><g id="shape-47312f52-29b6-80a3-8003-e559ef99955c" rx="0" ry="0"><g id="shape-47312f52-29b6-80a3-8003-e559ef99955d"><g class="fills" id="fills-47312f52-29b6-80a3-8003-e559ef99955d"><ellipse rx="57.499999999999545" ry="57.5" cx="57.499999999999545" cy="72.49999999999989" transform="matrix(1.000000, 0.000000, 0.000000, 1.000000, 0.000000, 0.000000)" style="fill: rgb(255, 255, 255); fill-opacity: 0;"/></g><g id="strokes-47312f52-29b6-80a3-8003-e559ef99955d" class="strokes"><g class="stroke-shape"><ellipse rx="57.499999999999545" ry="57.5" cx="57.499999999999545" cy="72.49999999999989" transform="matrix(1.000000, 0.000000, 0.000000, 1.000000, 0.000000, 0.000000)" style="fill: none; stroke-width: 3; stroke: rgb(120, 120, 120); stroke-opacity: 1;"/></g></g></g><g id="shape-47312f52-29b6-80a3-8003-e559ef99955e"><g class="fills" id="fills-47312f52-29b6-80a3-8003-e559ef99955e"><path rx="0" ry="0" d="M112.700,75.786L87.097,58.700L61.495,93.529L35.347,75.786L9.200,104.700"/></g><g id="strokes-47312f52-29b6-80a3-8003-e559ef99955e" class="strokes"><g class="stroke-shape"><path rx="0" ry="0" d="M112.700,75.786L87.097,58.700L61.495,93.529L35.347,75.786L9.200,104.700" style="fill: none; stroke-width: 3; stroke: rgb(120, 120, 120); stroke-opacity: 1;"/></g></g></g><g id="shape-47312f52-29b6-80a3-8003-e559ef99955f"><g class="fills" id="fills-47312f52-29b6-80a3-8003-e559ef99955f"><ellipse rx="9.200000000000045" ry="9.199999999999932" cx="34.49999999999977" cy="51.799999999999955" transform="matrix(1.000000, 0.000000, 0.000000, 1.000000, 0.000000, 0.000000)"/></g><g id="strokes-47312f52-29b6-80a3-8003-e559ef99955f" class="strokes"><g class="stroke-shape"><ellipse rx="9.200000000000045" ry="9.199999999999932" cx="34.49999999999977" cy="51.799999999999955" transform="matrix(1.000000, 0.000000, 0.000000, 1.000000, 0.000000, 0.000000)" style="fill: none; stroke-width: 3; stroke: rgb(120, 120, 120); stroke-opacity: 1;"/></g></g></g></g><g id="shape-47312f52-29b6-80a3-8003-e55aa449791a" rx="0" ry="0"><g id="shape-47312f52-29b6-80a3-8003-e55aa449791b"><g class="fills" id="fills-47312f52-29b6-80a3-8003-e55aa449791b"><ellipse rx="67.5" ry="67.50000000000006" cx="195.5" cy="72.49999999999983" transform="matrix(1.000000, 0.000000, 0.000000, 1.000000, 0.000000, 0.000000)" style="fill: rgb(255, 255, 255); fill-opacity: 0;"/></g><g id="strokes-47312f52-29b6-80a3-8003-e55aa449791b" class="strokes"><g class="stroke-shape"><ellipse rx="67.5" ry="67.50000000000006" cx="195.5" cy="72.49999999999983" transform="matrix(1.000000, 0.000000, 0.000000, 1.000000, 0.000000, 0.000000)" style="fill: none; stroke-width: 3; stroke: rgb(120, 120, 120); stroke-opacity: 1;"/></g></g></g><g id="shape-47312f52-29b6-80a3-8003-e55aa449791c"><g class="fills" id="fills-47312f52-29b6-80a3-8003-e55aa449791c"><path rx="0" ry="0" d="M260.300,76.357L230.245,56.300L200.189,97.186L169.495,76.357L138.800,110.300"/></g><g id="strokes-47312f52-29b6-80a3-8003-e55aa449791c" class="strokes"><g class="stroke-shape"><path rx="0" ry="0" d="M260.300,76.357L230.245,56.300L200.189,97.186L169.495,76.357L138.800,110.300" style="fill: none; stroke-width: 3; stroke: rgb(120, 120, 120); stroke-opacity: 1;"/></g></g></g><g id="shape-47312f52-29b6-80a3-8003-e55aa449791d"><g class="fills" id="fills-47312f52-29b6-80a3-8003-e55aa449791d"><ellipse rx="10.800000000000182" ry="10.799999999999955" cx="168.5" cy="48.19999999999993" transform="matrix(1.000000, 0.000000, 0.000000, 1.000000, 0.000000, 0.000000)"/></g><g id="strokes-47312f52-29b6-80a3-8003-e55aa449791d" class="strokes"><g class="stroke-shape"><ellipse rx="10.800000000000182" ry="10.799999999999955" cx="168.5" cy="48.19999999999993" transform="matrix(1.000000, 0.000000, 0.000000, 1.000000, 0.000000, 0.000000)" style="fill: none; stroke-width: 3; stroke: rgb(120, 120, 120); stroke-opacity: 1;"/></g></g></g></g></g></g></g><g id="shape-47312f52-29b6-80a3-8003-e537441b36cf"><g fill="none"><g class="fills" id="fills-47312f52-29b6-80a3-8003-e537441b36cf"><rect rx="0" ry="0" x="-4.547473508864641e-13" y="144.9999999999999" transform="matrix(1.000000, 0.000000, 0.000000, 1.000000, 0.000000, 0.000000)" width="274.00000000000136" height="130.65326633165796" class="frame-background"/></g><g class="frame-children"><g id="shape-47312f52-29b6-80a3-8003-e55a8327b7c1" rx="0" ry="0"><g id="shape-47312f52-29b6-80a3-8003-e55a8327b7c2"><g class="fills" id="fills-47312f52-29b6-80a3-8003-e55a8327b7c2"><ellipse rx="62.5" ry="62.5" cx="77.5" cy="212.4999999999999" transform="matrix(1.000000, 0.000000, 0.000000, 1.000000, 0.000000, 0.000000)" style="fill: rgb(255, 255, 255); fill-opacity: 0;"/></g><g id="strokes-47312f52-29b6-80a3-8003-e55a8327b7c2" class="strokes"><g class="stroke-shape"><ellipse rx="62.5" ry="62.5" cx="77.5" cy="212.4999999999999" transform="matrix(1.000000, 0.000000, 0.000000, 1.000000, 0.000000, 0.000000)" style="fill: none; stroke-width: 3; stroke: rgb(120, 120, 120); stroke-opacity: 1;"/></g></g></g><g id="shape-47312f52-29b6-80a3-8003-e55a8327b7c3"><g class="fills" id="fills-47312f52-29b6-80a3-8003-e55a8327b7c3"><path rx="0" ry="0" d="M137.500,216.071L109.671,197.500L81.842,235.357L53.421,216.071L25.000,247.500"/></g><g id="strokes-47312f52-29b6-80a3-8003-e55a8327b7c3" class="strokes"><g class="stroke-shape"><path rx="0" ry="0" d="M137.500,216.071L109.671,197.500L81.842,235.357L53.421,216.071L25.000,247.500" style="fill: none; stroke-width: 3; stroke: rgb(120, 120, 120); stroke-opacity: 1;"/></g></g></g><g id="shape-47312f52-29b6-80a3-8003-e55a8327b7c4"><g class="fills" id="fills-47312f52-29b6-80a3-8003-e55a8327b7c4"><ellipse rx="10.000000000000227" ry="10" cx="52.49999999999977" cy="189.9999999999999" transform="matrix(1.000000, 0.000000, 0.000000, 1.000000, 0.000000, 0.000000)"/></g><g id="strokes-47312f52-29b6-80a3-8003-e55a8327b7c4" class="strokes"><g class="stroke-shape"><ellipse rx="10.000000000000227" ry="10" cx="52.49999999999977" cy="189.9999999999999" transform="matrix(1.000000, 0.000000, 0.000000, 1.000000, 0.000000, 0.000000)" style="fill: none; stroke-width: 3; stroke: rgb(120, 120, 120); stroke-opacity: 1;"/></g></g></g></g><g id="shape-47312f52-29b6-80a3-8003-e55a5a5f461a" rx="0" ry="0"><g id="shape-47312f52-29b6-80a3-8003-e55a5a5f461b"><g class="fills" id="fills-47312f52-29b6-80a3-8003-e55a5a5f461b"><ellipse rx="52.49999999999977" ry="52.5" cx="207.49999999999932" cy="202.49999999999977" transform="matrix(1.000000, 0.000000, 0.000000, 1.000000, 0.000000, 0.000000)" style="fill: rgb(255, 255, 255); fill-opacity: 0;"/></g><g id="strokes-47312f52-29b6-80a3-8003-e55a5a5f461b" class="strokes"><g class="stroke-shape"><ellipse rx="52.49999999999977" ry="52.5" cx="207.49999999999932" cy="202.49999999999977" transform="matrix(1.000000, 0.000000, 0.000000, 1.000000, 0.000000, 0.000000)" style="fill: none; stroke-width: 3; stroke: rgb(120, 120, 120); stroke-opacity: 1;"/></g></g></g><g id="shape-47312f52-29b6-80a3-8003-e55a5a5f461c"><g class="fills" id="fills-47312f52-29b6-80a3-8003-e55a5a5f461c"><path rx="0" ry="0" d="M257.900,205.500L234.524,189.900L211.147,221.700L187.274,205.500L163.400,231.900"/></g><g id="strokes-47312f52-29b6-80a3-8003-e55a5a5f461c" class="strokes"><g class="stroke-shape"><path rx="0" ry="0" d="M257.900,205.500L234.524,189.900L211.147,221.700L187.274,205.500L163.400,231.900" style="fill: none; stroke-width: 3; stroke: rgb(120, 120, 120); stroke-opacity: 1;"/></g></g></g><g id="shape-47312f52-29b6-80a3-8003-e55a5a5f461d"><g class="fills" id="fills-47312f52-29b6-80a3-8003-e55a5a5f461d"><ellipse rx="8.400000000000091" ry="8.399999999999977" cx="186.49999999999955" cy="183.5999999999998" transform="matrix(1.000000, 0.000000, 0.000000, 1.000000, 0.000000, 0.000000)"/></g><g id="strokes-47312f52-29b6-80a3-8003-e55a5a5f461d" class="strokes"><g class="stroke-shape"><ellipse rx="8.400000000000091" ry="8.399999999999977" cx="186.49999999999955" cy="183.5999999999998" transform="matrix(1.000000, 0.000000, 0.000000, 1.000000, 0.000000, 0.000000)" style="fill: none; stroke-width: 3; stroke: rgb(120, 120, 120); stroke-opacity: 1;"/></g></g></g></g></g></g></g></g></g></g></g></svg>