<svg xmlns:xlink="http://www.w3.org/1999/xlink" width="118" xmlns="http://www.w3.org/2000/svg" height="118" id="screenshot-47312f52-29b6-80a3-8003-e559ef99955c" viewBox="-1.5 -1.5 118 118" style="-webkit-print-color-adjust: exact;" fill="none" version="1.1"><g id="shape-47312f52-29b6-80a3-8003-e559ef99955c" rx="0" ry="0"><g id="shape-47312f52-29b6-80a3-8003-e559ef99955d"><g class="fills" id="fills-47312f52-29b6-80a3-8003-e559ef99955d"><ellipse rx="57.499999999999545" ry="57.5" cx="57.500000000000455" cy="57.5" transform="matrix(1.000000, 0.000000, 0.000000, 1.000000, 0.000000, 0.000000)" style="fill: rgb(255, 255, 255); fill-opacity: 0;"/></g><g id="strokes-47312f52-29b6-80a3-8003-e559ef99955d" class="strokes"><g class="stroke-shape"><ellipse rx="57.499999999999545" ry="57.5" cx="57.500000000000455" cy="57.5" transform="matrix(1.000000, 0.000000, 0.000000, 1.000000, 0.000000, 0.000000)" style="fill: none; stroke-width: 3; stroke: rgb(120, 120, 120); stroke-opacity: 1;"/></g></g></g><g id="shape-47312f52-29b6-80a3-8003-e559ef99955e"><g class="fills" id="fills-47312f52-29b6-80a3-8003-e559ef99955e"><path rx="0" ry="0" d="M112.700,60.786L87.097,43.700L61.495,78.529L35.347,60.786L9.200,89.700"/></g><g id="strokes-47312f52-29b6-80a3-8003-e559ef99955e" class="strokes"><g class="stroke-shape"><path rx="0" ry="0" d="M112.700,60.786L87.097,43.700L61.495,78.529L35.347,60.786L9.200,89.700" style="fill: none; stroke-width: 3; stroke: rgb(120, 120, 120); stroke-opacity: 1;"/></g></g></g><g id="shape-47312f52-29b6-80a3-8003-e559ef99955f"><g class="fills" id="fills-47312f52-29b6-80a3-8003-e559ef99955f"><ellipse rx="9.200000000000045" ry="9.199999999999932" cx="34.50000000000068" cy="36.80000000000007" transform="matrix(1.000000, 0.000000, 0.000000, 1.000000, 0.000000, 0.000000)"/></g><g id="strokes-47312f52-29b6-80a3-8003-e559ef99955f" class="strokes"><g class="stroke-shape"><ellipse rx="9.200000000000045" ry="9.199999999999932" cx="34.50000000000068" cy="36.80000000000007" transform="matrix(1.000000, 0.000000, 0.000000, 1.000000, 0.000000, 0.000000)" style="fill: none; stroke-width: 3; stroke: rgb(120, 120, 120); stroke-opacity: 1;"/></g></g></g></g></svg>