<svg width="23" height="23" viewBox="0 0 23 23" fill="none" xmlns="http://www.w3.org/2000/svg">
<path fill-rule="evenodd" clip-rule="evenodd" d="M7.83667 0.305542H16.0867C19.883 0.305542 22.9617 3.38417 22.9617 7.18054V15.4305C22.9617 19.2269 19.883 22.3055 16.0867 22.3055H7.83667C4.04029 22.3055 0.96167 19.2269 0.96167 15.4305V7.18054C0.96167 3.38417 4.04029 0.305542 7.83667 0.305542ZM16.0867 20.243C18.7404 20.243 20.8992 18.0843 20.8992 15.4305V7.18054C20.8992 4.52679 18.7404 2.36804 16.0867 2.36804H7.83667C5.18292 2.36804 3.02417 4.52679 3.02417 7.18054V15.4305C3.02417 18.0843 5.18292 20.243 7.83667 20.243H16.0867Z" fill="#AB090E"/>
<path fill-rule="evenodd" clip-rule="evenodd" d="M6.46167 11.3055C6.46167 8.26817 8.92429 5.80554 11.9617 5.80554C14.999 5.80554 17.4617 8.26817 17.4617 11.3055C17.4617 14.3429 14.999 16.8055 11.9617 16.8055C8.92429 16.8055 6.46167 14.3429 6.46167 11.3055ZM8.52417 11.3055C8.52417 13.2003 10.0669 14.743 11.9617 14.743C13.8564 14.743 15.3992 13.2003 15.3992 11.3055C15.3992 9.40942 13.8564 7.86804 11.9617 7.86804C10.0669 7.86804 8.52417 9.40942 8.52417 11.3055Z" fill="#AB090E"/>
<circle cx="17.8742" cy="5.39303" r="0.732875" fill="#AB090E"/>
</svg>
