<svg width="23" height="23" viewBox="0 0 23 23" fill="none" xmlns="http://www.w3.org/2000/svg">
<path fill-rule="evenodd" clip-rule="evenodd" d="M7.79834 0.305542H16.0483C19.8447 0.305542 22.9233 3.38417 22.9233 7.18054V15.4305C22.9233 19.2269 19.8447 22.3055 16.0483 22.3055H7.79834C4.00196 22.3055 0.92334 19.2269 0.92334 15.4305V7.18054C0.92334 3.38417 4.00196 0.305542 7.79834 0.305542ZM16.0483 20.243C18.7021 20.243 20.8608 18.0843 20.8608 15.4305V7.18054C20.8608 4.52679 18.7021 2.36804 16.0483 2.36804H7.79834C5.14459 2.36804 2.98584 4.52679 2.98584 7.18054V15.4305C2.98584 18.0843 5.14459 20.243 7.79834 20.243H16.0483Z" fill="#656565"/>
<path fill-rule="evenodd" clip-rule="evenodd" d="M6.42334 11.3055C6.42334 8.26817 8.88596 5.80554 11.9233 5.80554C14.9607 5.80554 17.4233 8.26817 17.4233 11.3055C17.4233 14.3429 14.9607 16.8055 11.9233 16.8055C8.88596 16.8055 6.42334 14.3429 6.42334 11.3055ZM8.48584 11.3055C8.48584 13.2003 10.0286 14.743 11.9233 14.743C13.8181 14.743 15.3608 13.2003 15.3608 11.3055C15.3608 9.40942 13.8181 7.86804 11.9233 7.86804C10.0286 7.86804 8.48584 9.40942 8.48584 11.3055Z" fill="#656565"/>
<circle cx="17.8359" cy="5.39303" r="0.732875" fill="#656565"/>
</svg>
