<svg width="23" height="23" viewBox="0 0 23 23" fill="none" xmlns="http://www.w3.org/2000/svg">
<path d="M0.92334 1.88129C0.92334 1.01092 1.64659 0.305542 2.53896 0.305542H21.3077C22.2001 0.305542 22.9233 1.01092 22.9233 1.88129V20.7298C22.9233 21.6002 22.2001 22.3055 21.3077 22.3055H2.53896C1.64659 22.3055 0.92334 21.6002 0.92334 20.7298V1.88129ZM7.71996 18.7223V8.78792H4.41859V18.7223H7.71996ZM6.06996 7.43079C7.22084 7.43079 7.93721 6.66904 7.93721 5.71479C7.91659 4.73992 7.22221 3.99879 6.09196 3.99879C4.96171 3.99879 4.22334 4.74129 4.22334 5.71479C4.22334 6.66904 4.93971 7.43079 6.04796 7.43079H6.06996ZM12.8185 18.7223V13.1742C12.8185 12.8772 12.8405 12.5802 12.9285 12.3684C13.1663 11.7758 13.7095 11.1612 14.6225 11.1612C15.8173 11.1612 16.2945 12.0714 16.2945 13.4079V18.7223H19.5958V13.0243C19.5958 9.97179 17.9678 8.55279 15.7953 8.55279C14.0436 8.55279 13.2585 9.51529 12.8185 10.1932V10.2275H12.7965L12.8185 10.1932V8.78792H9.51846C9.55971 9.72017 9.51846 18.7223 9.51846 18.7223H12.8185Z" fill="#AB090E"/>
</svg>
