<svg xmlns:xlink="http://www.w3.org/1999/xlink" width="20" xmlns="http://www.w3.org/2000/svg" height="20" id="screenshot-3ce78b44-3fbf-8063-8003-e7b57fb5c989" viewBox="0 0 20 20" style="-webkit-print-color-adjust: exact;" fill="none" version="1.1"><g id="shape-3ce78b44-3fbf-8063-8003-e7b57fb5c989" width="32px" height="32px" rx="0" ry="0" style="fill: rgb(0, 0, 0);"><g id="shape-3ce78b44-3fbf-8063-8003-e7b57fb5c98c" rx="0" ry="0" style="fill: rgb(0, 0, 0);"><g id="shape-3ce78b44-3fbf-8063-8003-e7b57fb5c98d"><g class="fills" id="fills-3ce78b44-3fbf-8063-8003-e7b57fb5c98d"><path rx="0" ry="0" d="M15.367,2.550L4.633,2.550C3.484,2.553,2.553,3.484,2.550,4.633L2.550,15.367C2.553,16.516,3.484,17.447,4.633,17.450L15.367,17.450C16.517,17.450,17.450,16.517,17.450,15.367L17.450,4.633C17.450,3.483,16.517,2.550,15.367,2.550ZZM16.617,15.367C16.612,16.055,16.055,16.612,15.367,16.617L4.633,16.617C3.945,16.612,3.388,16.055,3.383,15.367L3.383,4.633C3.388,3.945,3.945,3.388,4.633,3.383L15.367,3.383C16.055,3.388,16.612,3.945,16.617,4.633Z"/></g></g><g id="shape-3ce78b44-3fbf-8063-8003-e7b57fb5c98e" rx="0" ry="0" style="fill: rgb(0, 0, 0);"><g id="shape-3ce78b44-3fbf-8063-8003-e7b57fb5c98f"><g class="fills" id="fills-3ce78b44-3fbf-8063-8003-e7b57fb5c98f"><path rx="0" ry="0" d="M5.313,8.957C5.313,8.496,5.686,8.123,6.147,8.123C6.607,8.123,6.980,8.496,6.980,8.957L6.980,14.373L6.980,14.373C6.980,14.834,6.607,15.207,6.147,15.207C5.686,15.207,5.313,14.834,5.313,14.373Z"/></g></g><g id="shape-3ce78b44-3fbf-8063-8003-e7b57fb5c990"><g class="fills" id="fills-3ce78b44-3fbf-8063-8003-e7b57fb5c990"><ellipse rx="0.8333333333334849" ry="0.8333333333332575" cx="6.146666666666988" cy="5.620000000000118" transform="matrix(1.000000, 0.000000, 0.000000, 1.000000, 0.000000, 0.000000)"/></g></g><g id="shape-3ce78b44-3fbf-8063-8003-e7b57fb5c991"><g class="fills" id="fills-3ce78b44-3fbf-8063-8003-e7b57fb5c991"><path rx="0" ry="0" d="M14.683,11.142L14.683,14.375C14.683,14.835,14.310,15.208,13.850,15.208C13.390,15.208,13.017,14.835,13.017,14.375L13.017,11.142C13.017,10.661,12.760,10.217,12.344,9.976C11.927,9.736,11.414,9.736,10.998,9.976C10.582,10.217,10.325,10.661,10.325,11.142L10.325,14.375C10.325,14.835,9.952,15.208,9.492,15.208C9.031,15.208,8.658,14.835,8.658,14.375L8.658,8.958C8.665,8.501,9.034,8.132,9.492,8.125C9.779,8.117,10.048,8.267,10.192,8.517C11.124,7.988,12.268,7.995,13.193,8.536C14.119,9.077,14.687,10.070,14.683,11.142ZZ"/></g></g></g></g></g></svg>